<svg width="295" height="45" viewBox="0 0 295 45" fill="none" xmlns="http://www.w3.org/2000/svg">
    <path d="M81.702 6.885h-4.27l-5.275 22.848-5.299-22.654-.046-.194h-4.738L56.822 29.55 51.638 6.885h-4.34l6.886 29.402.046.194h4.898l5.264-22.471 5.207 22.277.034.194h4.99l6.999-29.288.08-.308zM91.133 13.302c-3.174 0-5.64 1.005-7.342 2.992-1.69 1.975-2.546 4.99-2.546 8.974 0 3.985.856 6.897 2.535 8.872 1.69 1.987 4.168 2.992 7.353 2.992 3.186 0 5.652-1.017 7.32-3.026 1.655-1.998 2.5-4.978 2.5-8.838 0-3.86-.834-6.908-2.49-8.917-1.666-2.021-4.132-3.037-7.33-3.037v-.012zm4.225 18.223c-.925 1.313-2.306 1.953-4.225 1.953-2.01 0-3.425-.651-4.328-1.976-.901-1.335-1.358-3.448-1.358-6.257 0-2.808.48-5.07 1.415-6.382.915-1.29 2.353-1.953 4.282-1.953 1.93 0 3.266.64 4.214 1.941.947 1.313 1.427 3.46 1.427 6.394 0 2.935-.468 4.944-1.404 6.269l-.023.011zM109.083 4.681h-4.065v31.8h4.065V4.68zM126.655 4.864c-1.278-.56-2.728-.845-4.327-.845-2.569 0-4.396.662-5.424 1.976-1.027 1.29-1.541 3.322-1.541 6.028v1.896h-3.209v3.516h3.209v19.023h4.065V17.447h4.852V13.93h-4.852v-1.895c0-1.759.217-2.946.662-3.517.422-.56 1.199-.845 2.329-.845.468 0 .994.08 1.587.228a6.877 6.877 0 0 1 1.462.526l.251.137 1.131-3.597-.206-.091.011-.012zM137.731 13.588a6.395 6.395 0 0 0-3.814 1.233 25.137 25.137 0 0 0-2.774 2.329v-3.231h-4.065v22.55h4.065V21.078c1.267-1.268 2.387-2.147 3.334-2.626a6.622 6.622 0 0 1 2.98-.72c.685 0 1.211.08 1.565.229l.273.114.88-3.94-.16-.09c-.571-.309-1.347-.469-2.284-.469v.012zM156.754 15.083c-1.404-1.187-3.722-1.78-6.908-1.78-2.055 0-3.802.33-5.195 1.004-1.404.674-2.477 1.655-3.163 2.911l-.114.206 3.346 2.055.125-.217c.331-.57.879-1.107 1.644-1.598.754-.491 1.862-.742 3.277-.742 1.599 0 2.855.296 3.757.89.856.571 1.302 1.667 1.302 3.266v.845l-5.161.468c-2.147.251-3.802.685-4.944 1.279-1.154.605-2.044 1.427-2.661 2.466-.605 1.04-.913 2.352-.913 3.905 0 2.055.593 3.768 1.758 5.092 1.176 1.336 2.854 2.01 5.001 2.01 1.45 0 2.775-.331 3.928-.993a20.156 20.156 0 0 0 2.992-2.124v2.466h4.064V21.261c0-2.89-.719-4.967-2.123-6.155l-.012-.023zm-7.753 18.315c-1.233 0-2.169-.274-2.774-.8-.594-.525-.891-1.415-.891-2.648 0-1.313.445-2.284 1.359-2.97.925-.696 2.58-1.14 4.898-1.346l3.232-.309v4.99c-.434.343-.868.697-1.313 1.05-.469.377-.959.708-1.462 1.005a9.923 9.923 0 0 1-1.53.742 4.166 4.166 0 0 1-1.519.286zM191.922 16.773c-.388-1.119-1.016-1.986-1.861-2.58-.845-.594-1.975-.89-3.345-.89a7.043 7.043 0 0 0-4.077 1.278c-1.084.754-2.158 1.69-3.197 2.774-.331-1.324-.913-2.329-1.747-2.968-.925-.72-2.158-1.085-3.677-1.085-1.37 0-2.683.411-3.882 1.222a18.079 18.079 0 0 0-2.786 2.318V13.93h-4.065v22.55h4.065V20.759c1.108-1.107 2.169-1.975 3.174-2.569.994-.594 1.873-.902 2.603-.902.788 0 1.371.137 1.725.4.354.262.605.742.765 1.404.16.708.24 2.101.24 4.145v13.233h4.064V20.747c1.405-1.313 2.558-2.238 3.415-2.73.856-.49 1.644-.741 2.317-.741.8 0 1.393.125 1.759.365.365.24.616.674.765 1.313.16.674.24 2.112.24 4.27v13.234h4.064V21.5c0-2.055-.194-3.642-.57-4.738l.011.011z" fill="#D10"/>
    <path d="M210.5 6.885h-5.343L195.143 36.47h4.453l2.454-7.57h11.396l2.501 7.57h4.578l-9.956-29.424-.057-.171-.012.011zm1.576 17.995h-8.701l4.35-13.154 4.351 13.154zM227.307 4.681h-4.065v31.8h4.065V4.68zM242.402 13.302a8.827 8.827 0 0 0-3.813.845 11.627 11.627 0 0 0-2.615 1.678V13.93h-4.065v30.6h4.065v-9.59c1.816 1.45 3.779 2.18 5.857 2.18 2.809 0 5.036-1.107 6.646-3.3 1.587-2.17 2.386-5.126 2.386-8.78 0-3.654-.742-6.657-2.215-8.666-1.484-2.044-3.596-3.072-6.257-3.072h.011zm4.271 11.83c0 2.865-.514 4.977-1.507 6.302-1.005 1.324-2.25 1.964-3.802 1.964-1.793 0-3.597-.754-5.379-2.25V19.697a12.25 12.25 0 0 1 2.581-1.86c1.005-.549 2.067-.834 3.151-.834 3.335 0 4.967 2.66 4.967 8.118l-.011.011zM265.81 13.302c-1.393 0-2.809.411-4.179 1.222a18.174 18.174 0 0 0-3.174 2.352V4.68h-4.065v31.8h4.065V20.769a21.84 21.84 0 0 1 3.413-2.466c1.177-.674 2.216-1.016 3.084-1.016.868 0 1.519.149 1.941.445.422.286.73.754.914 1.393.194.663.296 2.055.296 4.122v13.234h4.065V21.523c0-2.934-.514-5.058-1.53-6.303-1.028-1.267-2.66-1.907-4.83-1.907v-.01zM291.364 15.083c-1.405-1.187-3.723-1.78-6.908-1.78-2.056 0-3.802.33-5.196 1.004-1.404.674-2.477 1.655-3.162 2.911l-.114.206 3.345 2.055.125-.217c.332-.57.879-1.107 1.644-1.598.754-.491 1.862-.742 3.278-.742 1.598 0 2.855.296 3.756.89.857.571 1.302 1.667 1.302 3.266v.845l-5.161.468c-2.146.251-3.802.685-4.944 1.279-1.153.605-2.044 1.427-2.661 2.466-.604 1.04-.913 2.352-.913 3.905 0 2.055.594 3.768 1.759 5.092 1.175 1.336 2.854 2.01 5 2.01 1.451 0 2.775-.331 3.929-.993a20.15 20.15 0 0 0 2.991-2.124v2.466h4.065V21.261c0-2.89-.72-4.967-2.124-6.155l-.011-.023zm-7.753 18.315c-1.233 0-2.17-.274-2.775-.8-.594-.525-.89-1.415-.89-2.648 0-1.313.445-2.284 1.358-2.97.925-.696 2.581-1.14 4.898-1.346l3.232-.309v4.99c-.434.343-.867.697-1.313 1.05-.468.377-.959.708-1.462 1.005a9.879 9.879 0 0 1-1.53.742 4.157 4.157 0 0 1-1.518.286z" fill="#FF7D00"/>
    <path d="m42.343 28.397-8.986 1.918.913 8.929-8.415-3.608-4.636 7.753-4.635-7.753-8.416 3.608.914-8.93-8.986-1.917 6.12-6.703-6.12-6.702 8.986-1.918-.914-8.93 8.416 3.609L21.219 0l4.636 7.753 8.415-3.608-.913 8.94 8.986 1.907-6.12 6.702 6.12 6.703z" fill="#F16850"/>
    <path d="m21.219 13.542-4.636-5.79-8.415-3.607 5.013 6.6 8.038 2.797z" fill="#FD694F"/>
    <path d="M9.082 13.074.096 14.992l6.12 6.702 7.193-2.614-4.327-6.006z" fill="#FF3413"/>
    <path d="m13.18 10.744-5.012-6.6.913 8.93 4.328 6.006-.228-8.336z" fill="#DC1D23"/>
    <path d="M25.856 7.753 21.22 0l-4.636 7.753 4.636 5.789 4.636-5.79z" fill="#FF9281"/>
    <path d="m36.223 21.694 6.12-6.702-8.986-1.918-4.328 6.006 7.194 2.614z" fill="#FF8B79"/>
    <path d="m29.03 19.08 4.327-6.006.925-8.93-5.024 6.6-.229 8.336z" fill="#FD694F"/>
    <path d="m29.258 10.744 5.024-6.6-8.426 3.609-4.636 5.789 8.038-2.798z" fill="#EF5240"/>
    <path d="m34.236 25.69 8.107 2.707-6.12-6.703-7.194-2.614 5.207 6.61z" fill="#FF482C"/>
    <path d="m13.41 19.08-7.194 2.614-6.12 6.703 8.107-2.706 5.206-6.611z" fill="#EC2101"/>
    <path d="M21.22 34.928v8.46l4.636-7.752.194-7.593-4.83 6.885z" fill="#D21C22"/>
    <path d="m34.237 25.69-8.187 2.353 7.308 2.272 8.986-1.918-8.107-2.706z" fill="#C90901"/>
    <path d="m25.855 35.636 8.416 3.608-.914-8.929-7.307-2.272-.195 7.593z" fill="#EC2101"/>
    <path d="M8.203 25.69.096 28.398l8.986 1.907 7.308-2.261-8.187-2.352z" fill="#B6171E"/>
    <path d="m16.39 28.043.194 7.593 4.636 7.753v-8.461l-4.83-6.885z" fill="#B4151B"/>
    <path d="m9.081 30.303-.913 8.94 8.415-3.607-.194-7.593-7.308 2.26z" fill="#D21C22"/>
    <path d="m29.03 19.08.228-8.336-8.038 2.798v8.107l7.81-2.57z" fill="#E63320"/>
    <path d="m21.22 13.542-8.04-2.798.229 8.336 7.81 2.569v-8.107z" fill="#FF4527"/>
    <path d="m16.39 28.043 4.83 6.885 4.83-6.885-4.83-6.394-4.83 6.394z" fill="#FF9281"/>
    <path d="m21.22 21.649 4.83 6.394 8.187-2.352-5.207-6.611-7.81 2.569z" fill="#FD684D"/>
    <path d="m13.41 19.08-5.207 6.61 8.187 2.353 4.83-6.394-7.81-2.57z" fill="#FD745C"/>
</svg>
