<svg width="188" height="91" viewBox="0 0 188 91" fill="none" xmlns="http://www.w3.org/2000/svg">
<path d="M0 45.5C0 36.3788 1.87055 28.4242 5.61164 21.6364C9.35274 14.7424 14.5368 9.43939 21.1639 5.72727C27.791 1.90909 35.3801 0 43.9311 0C54.9406 0 64.0262 2.75757 71.1877 8.27272C78.4561 13.6818 83.3195 21.3182 85.7779 31.1818L65.9962 31.9683C64.7135 28.1501 58.0938 24.3939 54.9941 22.2727C52.0012 20.0455 48.2601 18.9318 43.7708 18.9318C37.3575 18.9318 32.2803 21.2652 28.5392 25.9318C24.7981 30.4924 22.9276 37.0151 22.9276 45.5C22.9276 53.8788 24.7981 60.4015 28.5392 65.0682C32.2803 69.6288 37.3575 71.9091 43.7708 71.9091C53.1885 71.9091 58.1241 66.3863 65.7637 59.3793L85.7779 59.8182C83.3195 69.3636 78.4561 76.947 71.1877 82.5682C63.9193 88.1894 54.8337 91 43.9311 91C35.3801 91 27.791 89.1439 21.1639 85.4318C14.5368 81.6136 9.35274 76.3106 5.61164 69.5227C1.87055 62.6288 0 54.6212 0 45.5Z" fill="url(#paint0_linear_859_231)"/>
<path d="M141.664 91C133.113 91 125.417 89.1439 118.576 85.4318C111.735 81.6136 106.337 76.2576 102.382 69.3636C98.5344 62.4697 96.6104 54.5151 96.6104 45.5C96.6104 36.4848 98.5879 28.5303 102.543 21.6364C106.604 14.7424 112.109 9.43939 119.057 5.72727C126.005 1.90909 133.754 0 142.305 0C150.856 0 158.606 1.90909 165.553 5.72727C172.501 9.43939 177.952 14.7424 181.907 21.6364C185.969 28.5303 188 36.4848 188 45.5C188 54.5151 185.916 62.4697 181.747 69.3636C177.685 76.2576 172.127 81.6136 165.072 85.4318C158.125 89.1439 150.322 91 141.664 91ZM141.664 71.5909C145.726 71.5909 149.52 70.6364 153.047 68.7273C156.682 66.7121 159.568 63.7424 161.705 59.8182C163.843 55.8939 164.912 51.1212 164.912 45.5C164.912 37.1212 162.667 30.7045 158.178 26.25C153.796 21.6894 148.398 19.4091 141.985 19.4091C135.571 19.4091 130.173 21.6894 125.791 26.25C121.515 30.7045 119.378 37.1212 119.378 45.5C119.378 53.8788 121.462 60.3485 125.631 64.9091C129.906 69.3636 135.251 71.5909 141.664 71.5909Z" fill="url(#paint1_linear_859_231)"/>
<path d="M75.1745 11.8036C75.7727 12.1993 83.5501 19.3723 90.2804 29.6123C81.0375 39.2295 76.7185 43.7246 75.0237 45.4893C75.0237 45.4893 75.0245 45.4909 75.0249 45.4917L75.0237 45.4893C72.7293 40.9369 66.1095 30.3533 57.9746 24.4181C49.8383 18.4819 66.1009 13.4855 75.1745 11.8036Z" fill="url(#paint2_linear_859_231)"/>
<path d="M108.378 13.8813C98.2073 25.0117 64.7947 62.8848 53.1885 70.127C53.687 71.8089 39.2239 91.7956 58.1241 89.1229C77.0244 86.4502 114.46 35.8948 119.745 26.3474C119.745 26.3474 118.548 2.75089 108.378 13.8813Z" fill="url(#paint3_linear_859_231)"/>
<defs>
<linearGradient id="paint0_linear_859_231" x1="9.82559" y1="42.3749" x2="199.879" y2="42.375" gradientUnits="userSpaceOnUse">
<stop stop-color="#F1A340"/>
<stop offset="0.482005" stop-color="#C76988"/>
<stop offset="1" stop-color="#6D76A3"/>
</linearGradient>
<linearGradient id="paint1_linear_859_231" x1="9.82559" y1="42.3749" x2="199.879" y2="42.375" gradientUnits="userSpaceOnUse">
<stop stop-color="#F1A340"/>
<stop offset="0.482005" stop-color="#C76988"/>
<stop offset="1" stop-color="#6D76A3"/>
</linearGradient>
<linearGradient id="paint2_linear_859_231" x1="9.82559" y1="42.3749" x2="199.879" y2="42.375" gradientUnits="userSpaceOnUse">
<stop stop-color="#F1A340"/>
<stop offset="0.482005" stop-color="#C76988"/>
<stop offset="1" stop-color="#6D76A3"/>
</linearGradient>
<linearGradient id="paint3_linear_859_231" x1="9.82559" y1="42.3749" x2="199.879" y2="42.375" gradientUnits="userSpaceOnUse">
<stop stop-color="#F1A340"/>
<stop offset="0.482005" stop-color="#C76988"/>
<stop offset="1" stop-color="#6D76A3"/>
</linearGradient>
</defs>
</svg>
