<svg width="654" height="284" viewBox="0 0 654 284" fill="none" xmlns="http://www.w3.org/2000/svg">
<path d="M653.739 141.647C653.725 176.049 641.201 209.273 618.501 235.124C595.802 260.975 564.476 277.689 530.364 282.151C528.075 282.442 525.751 282.243 523.545 281.566C521.339 280.889 519.303 279.749 517.572 278.224C515.841 276.698 514.455 274.821 513.506 272.718C512.557 270.614 512.067 268.333 512.069 266.026V266.026C512.069 262.096 513.493 258.3 516.078 255.341C518.663 252.381 522.233 250.459 526.126 249.93C542.978 247.745 559.088 241.657 573.173 232.149C587.257 222.642 598.929 209.978 607.257 195.166C615.586 180.354 620.342 163.802 621.148 146.828C621.954 129.854 618.786 112.926 611.898 97.3922C605.009 81.8578 594.59 68.1458 581.468 57.3474C568.347 46.549 552.887 38.9622 536.318 35.191C519.748 31.4198 502.527 31.5681 486.025 35.6242C469.523 39.6804 454.196 47.5323 441.263 58.5552C434.876 49.7553 427.504 41.7144 419.29 34.589C439.817 16.8095 465.02 5.30341 491.9 1.44072C518.78 -2.42197 546.204 1.52145 570.907 12.8015C595.609 24.0815 616.55 42.223 631.235 65.0659C645.92 87.9087 653.732 114.491 653.739 141.647V141.647Z" fill="white"/>
<path d="M589.048 140.54C589.296 157.444 583.975 173.96 573.906 187.54C563.838 201.121 549.581 211.012 533.334 215.687C530.846 216.39 528.229 216.507 525.688 216.028C523.147 215.549 520.752 214.487 518.691 212.925C516.63 211.364 514.96 209.346 513.811 207.029C512.662 204.713 512.066 202.162 512.07 199.576V199.576C512.088 195.927 513.292 192.383 515.5 189.477C517.708 186.571 520.801 184.462 524.312 183.466C534.353 180.537 543.005 174.092 548.685 165.309C554.366 156.526 556.695 145.991 555.247 135.632C553.798 125.273 548.67 115.781 540.799 108.892C532.928 102.003 522.84 98.1778 512.38 98.1151C509.687 98.0957 506.998 98.3232 504.347 98.7944L503.343 98.9863C494.181 100.808 485.833 105.492 479.504 112.363C473.174 119.233 469.19 127.936 468.125 137.217C467.605 120.128 463.982 103.276 457.434 87.4832C468.114 76.7286 481.732 69.3659 496.579 66.3177C511.427 63.2695 526.844 64.6715 540.898 70.348C554.952 76.0245 567.018 85.7229 575.583 98.2277C584.149 110.732 588.833 125.487 589.048 140.643V140.54Z" fill="white"/>
<path d="M403.771 134.071C401.884 115.062 392.997 97.4325 378.838 84.609C364.678 71.7856 346.258 64.6839 327.154 64.6839C308.051 64.6839 289.63 71.7856 275.471 84.609C261.312 97.4325 252.425 115.062 250.538 134.071C250.705 136.572 250.794 139.102 250.804 141.662C250.814 144.221 250.725 146.751 250.538 149.252C249.331 166.985 243.783 184.15 234.383 199.236C224.668 214.886 211.152 227.824 195.092 236.845C179.032 245.867 160.95 250.678 142.531 250.832C124.111 250.986 105.952 246.477 89.7437 237.725C73.5353 228.973 59.8046 216.263 49.8297 200.777C39.8547 185.291 33.9597 167.534 32.6934 149.157C31.4272 130.781 34.8308 112.382 42.5875 95.6747C50.3442 78.9672 62.2018 64.4938 77.0566 53.6015C91.9113 42.7093 109.28 35.7523 127.547 33.3782C131.441 32.8495 135.011 30.9273 137.596 27.9678C140.181 25.0083 141.605 21.2121 141.605 17.2826V17.2826C141.607 14.9752 141.117 12.6939 140.168 10.5907C139.219 8.4874 137.833 6.61043 136.102 5.08477C134.371 3.5591 132.334 2.41974 130.129 1.74257C127.923 1.06541 125.598 0.865979 123.309 1.15755C98.6538 4.37566 75.28 14.0274 55.5373 29.1425C35.7946 44.2576 20.3787 64.3036 10.8392 87.2652C1.29973 110.227 -2.02723 135.295 1.19282 159.95C4.41286 184.605 14.0664 207.978 29.1831 227.72C44.2998 247.461 64.3469 262.876 87.3093 272.413C110.272 281.951 135.34 285.276 159.995 282.054C184.65 278.832 208.022 269.177 227.763 254.058C247.503 238.94 262.916 218.892 272.452 195.929C282.742 206.29 295.767 213.511 310.006 216.749C324.246 219.987 339.112 219.109 352.871 214.217C366.631 209.325 378.715 200.621 387.714 189.121C396.714 177.62 402.257 163.798 403.697 149.266C403.539 146.756 403.461 144.216 403.461 141.647C403.461 139.077 403.564 136.552 403.771 134.071ZM328.579 185.179C319.848 185.467 311.231 183.122 303.849 178.449C296.468 173.776 290.662 166.991 287.188 158.975C283.713 150.959 282.73 142.084 284.366 133.502C286.002 124.92 290.181 117.028 296.361 110.853C302.541 104.677 310.435 100.503 319.018 98.8736C327.601 97.2437 336.476 98.2332 344.49 101.713C352.503 105.194 359.284 111.004 363.952 118.389C368.62 125.774 370.959 134.392 370.664 143.123C370.295 154.169 365.74 164.661 357.923 172.473C350.106 180.285 339.61 184.832 328.565 185.193L328.579 185.179Z" fill="white"/>
<path d="M467.888 141.647C467.887 143.157 467.966 144.665 468.124 146.166C467.269 174.474 457.909 201.87 441.264 224.783C434.877 233.583 427.505 241.624 419.291 248.749C393.527 271.048 360.594 283.321 326.52 283.321C292.446 283.321 259.513 271.048 233.749 248.749C241.988 241.628 249.385 233.587 255.795 224.783C271.175 237.888 289.889 246.467 309.856 249.566C329.822 252.665 350.257 250.162 368.885 242.336C387.513 234.51 403.604 221.667 415.366 205.238C427.128 188.809 434.099 169.438 435.505 149.282C435.672 146.781 435.761 144.251 435.771 141.692C435.78 139.132 435.692 136.602 435.505 134.102C434.289 116.342 428.721 99.1554 419.291 84.0576C409.48 68.2938 395.813 55.2901 379.581 46.2739C363.349 37.2576 345.088 32.5262 326.52 32.5262C307.952 32.5262 289.691 37.2576 273.459 46.2739C257.227 55.2901 243.56 68.2938 233.749 84.0576C224.35 99.1492 218.802 116.319 217.594 134.057C217.417 136.553 217.329 139.093 217.329 141.632C217.329 144.172 217.417 146.712 217.594 149.208C216.21 163.131 211.057 176.413 202.691 187.628C194.324 198.843 183.06 207.565 170.108 212.859C157.157 218.152 143.007 219.817 129.181 217.672C115.354 215.528 102.374 209.657 91.6334 200.69C80.8932 191.722 72.7997 179.998 68.2226 166.776C63.6455 153.554 62.7578 139.335 65.655 125.646C68.5522 111.958 75.1247 99.3176 84.6663 89.084C94.2078 78.8504 106.358 71.4104 119.81 67.5633C122.285 66.8651 124.888 66.75 127.415 67.2269C129.942 67.7038 132.324 68.7599 134.374 70.3122C136.425 71.8646 138.087 73.8709 139.232 76.1738C140.376 78.4767 140.971 81.0135 140.971 83.5851V83.7623C140.966 87.4045 139.777 90.9464 137.582 93.8529C135.386 96.7593 132.305 98.8723 128.803 99.8726C118.966 102.746 110.458 108.995 104.775 117.523C99.0921 126.05 96.5982 136.308 97.7324 146.492C98.8666 156.677 103.556 166.135 110.976 173.203C118.396 180.271 128.07 184.496 138.298 185.135C149.567 185.806 160.667 182.15 169.331 174.913C177.995 167.676 183.57 157.404 184.916 146.195C185.236 143.187 185.236 140.152 184.916 137.143C185.777 108.845 195.136 81.4611 211.776 58.5557C218.163 49.7558 225.535 41.7149 233.749 34.5896C259.513 12.2909 292.446 0.0180664 326.52 0.0180664C360.594 0.0180664 393.527 12.2909 419.291 34.5896C435.925 49.0043 448.982 67.0863 457.433 87.4096C463.991 103.226 467.613 120.103 468.124 137.217C467.969 138.689 467.89 140.168 467.888 141.647Z" fill="white"/>
</svg>
